<svg width="398" height="287" viewBox="0 0 398 287" fill="none" xmlns="http://www.w3.org/2000/svg">
<g clip-path="url(#clip0_31_799)">
<path d="M71.4224 0.183042C72.2239 2.13752 74.163 3.60678 75.7864 4.85208C78.3402 6.80656 81.1012 8.49298 83.8757 10.1183C88.98 13.1077 94.3695 15.6696 99.3549 18.8592C102.71 21.0071 105.848 23.5384 109.105 25.8356C112.083 27.9326 115.106 29.9617 118.234 31.828C121.765 33.9318 125.406 35.8421 129.081 37.6847C131.366 38.8316 133.655 39.9581 135.995 40.993C137.17 41.5122 138.342 42.0483 139.52 42.5607C140.929 43.1715 142.125 43.8128 143.375 44.695C144.424 45.4347 145.64 45.9946 146.76 46.6223C147.817 47.2127 148.883 47.7862 149.987 48.285C152.357 49.3539 154.87 50.192 157.329 51.0369C159.767 51.8716 162.26 52.5469 164.787 53.0694C167.483 53.6293 170.21 53.9924 172.893 54.6235C175.535 55.2444 178.147 55.974 180.779 56.6391C183.519 57.3313 186.216 57.9726 188.844 59.0448C189.945 59.4927 191.028 59.9814 192.111 60.47C193.429 61.0638 195.079 61.4506 196.149 62.455C196.947 63.2015 197.633 63.87 198.513 64.5282C199.623 65.3596 200.316 66.554 201.325 67.4905C202.218 68.3218 203.169 69.0887 204.062 69.92C205.088 70.8735 206.001 71.939 206.969 72.9535C208.861 74.942 210.82 76.8659 212.769 78.7966C216.407 82.3934 219.742 86.472 223.925 89.4513C225.029 90.2385 226.099 91.0664 227.182 91.8808C228.286 92.7155 229.519 93.4213 230.521 94.3782C232.239 96.0205 233.312 98.3822 234.165 100.564C235.109 102.99 235.744 105.511 236.528 107.988C237.289 110.397 238.501 112.583 239.384 114.941C240.243 117.238 241.215 119.451 242.206 121.69C242.689 122.776 243.055 123.916 243.561 124.992C244.081 126.091 244.787 127.085 245.331 128.171C246.132 129.773 247.406 133.268 245.086 134.279C244.03 134.74 242.485 134.493 241.398 134.313C239.992 134.082 238.641 133.607 237.326 133.074C234.837 132.063 232.392 131.062 230.483 129.108C228.768 127.346 227.189 125.263 225.888 123.176C224.143 120.377 222.89 117.286 221.283 114.405C221.069 114.021 220.845 113.383 220.502 113.098C220.309 112.936 219.385 112.986 219.375 112.966C219.405 113.02 220.305 113.183 220.244 112.936C220.21 112.79 219.932 112.576 219.833 112.454C219.466 112.002 219.106 111.548 218.733 111.1C217.816 110 216.865 108.925 215.948 107.825C215.167 106.889 214.474 105.868 213.652 104.968C212.776 104.008 211.727 103.228 210.773 102.345C208.918 100.635 207.081 98.9488 205.349 97.1097C203.634 95.2876 201.685 93.6758 199.62 92.2642C198.475 91.4804 197.222 90.9986 196.04 90.2962C195.107 89.7431 194.298 89.0644 193.303 88.603C188.501 86.3838 183.723 84.3683 178.49 83.3944C173.362 82.4375 168.003 82.9363 162.831 83.1196C161.744 83.1569 160.657 83.184 159.57 83.2417C158.477 83.2994 157.241 83.2655 156.184 83.598C155.268 83.8864 154.986 84.5345 155.329 85.4202C156.174 87.6122 158.429 89.1391 160.07 90.7135C161.275 91.8706 162.27 92.5798 164.016 92.4305C166.206 92.2439 168.156 91.4261 170.183 90.6491C172.774 89.6549 175.426 88.793 177.967 87.6766C180.235 86.679 182.456 85.6984 184.81 84.9078C185.968 84.5176 187.139 84.1341 188.365 84.0425C190.084 83.917 191.802 84.3309 193.463 84.7279C196.234 85.3896 198.652 86.7808 200.775 88.6607C204.605 92.0539 207.519 96.6449 210.216 100.954C211.588 103.15 212.858 105.403 214.158 107.639C214.821 108.782 215.391 109.943 215.673 111.239C215.911 112.325 216.081 113.373 216.485 114.415C217.436 116.872 218.159 119.413 218.594 122.012C219.015 124.534 219.405 126.987 220.207 129.423C220.961 131.717 221.653 134.011 222.204 136.362C222.689 138.439 223.073 140.794 222.007 142.762C221.321 144.024 220.298 144.693 218.93 144.041C217.66 143.434 216.58 142.429 215.605 141.432C213.581 139.362 211.856 136.976 210.341 134.516C205.271 126.288 202.588 116.902 198.975 108.005C198.078 105.796 197.226 103.896 195.395 102.298C193.687 100.808 191.857 99.6818 189.642 99.1287C184.874 97.9377 179.838 98.8403 174.999 98.0327C172.401 97.5983 169.854 96.8926 167.398 95.956C166.155 95.481 164.668 95.0161 163.55 94.2832C162.695 93.7199 162.416 92.685 161.54 92.1387C161.384 92.0403 160.463 91.8503 160.406 92.1387C160.093 93.7505 161.258 94.989 162.087 96.2546C163.204 97.9614 164.515 99.5087 165.788 101.097C168.444 104.415 171.124 107.724 174.024 110.835C178.347 115.474 182.619 120.061 184.857 126.118C185.435 127.676 185.88 129.281 186.219 130.906C186.542 132.443 186.864 134.004 186.487 135.561C185.798 138.415 183 140.485 180.052 140.237C178.266 140.088 176.571 139.067 175.1 138.106C174.139 137.479 173.277 136.742 172.577 135.829C171.949 135.012 171.426 134.113 170.828 133.271C169.864 131.914 168.753 130.679 167.595 129.481C162.077 123.763 155.828 118.782 149.423 114.096C146.203 111.741 142.977 109.203 139.469 107.296C135.893 105.352 132.025 104.042 128.33 102.352C121.025 99.0099 114.399 93.6113 109.326 87.4154C104.914 82.0303 101.664 75.8072 97.3275 70.3645C95.3136 67.8366 93.0451 65.4987 90.4063 63.6189C87.4348 61.5049 84.0625 60.2223 80.6393 59.0313C72.5873 56.2251 64.2432 54.3317 56.2285 51.4135C54.252 50.6942 2.92751 29.6835 1.01214 28.8148C0.791398 28.713 -0.380239 28.7572 0.13596 28.9913C8.14724 32.6186 66.094 54.9187 74.4721 57.4874C78.5338 58.7327 82.7958 59.9644 86.5552 61.9799C89.632 63.629 92.2946 65.9161 94.6039 68.5186C99.2633 73.7747 102.557 80.0521 106.765 85.6475C111.52 91.969 117.836 97.5067 124.829 101.243C128.629 103.272 132.742 104.619 136.623 106.478C140.332 108.256 143.626 110.764 146.947 113.16C153.763 118.08 160.426 123.302 166.288 129.345C167.463 130.556 168.597 131.798 169.582 133.173C170.207 134.045 170.747 134.978 171.399 135.829C172.951 137.852 175.549 139.433 177.957 140.183C180.266 140.902 182.939 140.78 185.007 139.443C187.527 137.811 188.158 135.005 187.659 132.199C186.528 125.85 183.679 120.367 179.492 115.497C176.995 112.596 174.265 109.909 171.786 106.994C169.055 103.781 166.206 100.527 163.802 97.0622C163.224 96.2309 162.712 95.3588 162.138 94.5309C161.632 93.8014 161.445 93.1125 161.615 92.2371C161.238 92.2371 160.857 92.2371 160.48 92.2371C161.346 92.7766 161.622 93.8353 162.491 94.3816C163.595 95.0738 164.95 95.5217 166.159 95.9968C168.414 96.8824 170.747 97.5746 173.124 98.0598C175.566 98.5586 178.048 98.8335 180.541 98.8776C183.241 98.9251 186.002 98.7113 188.657 99.2983C191.252 99.8718 193.514 101.392 195.297 103.336C196.893 105.07 197.613 107.503 198.458 109.658C200.238 114.188 201.827 118.785 203.661 123.295C206.439 130.122 209.883 137.502 215.534 142.487C217.079 143.848 219.432 145.408 221.589 144.503C222.849 143.973 223.552 142.501 223.783 141.231C224.184 139.046 223.511 136.803 222.968 134.706C222.343 132.287 221.463 129.952 220.808 127.543C220.122 125.019 219.952 122.392 219.348 119.851C219.059 118.629 218.713 117.421 218.312 116.23C217.918 115.067 217.398 113.94 217.144 112.735C216.916 111.65 216.75 110.584 216.318 109.556C215.802 108.331 215.062 107.215 214.406 106.061C211.791 101.473 208.983 97.0113 205.746 92.8275C202.724 88.9185 199.002 85.6441 194.095 84.4734C191.863 83.9407 189.561 83.4589 187.258 83.7473C185.095 84.0154 182.877 84.8569 180.867 85.6712C178.507 86.6281 176.231 87.7479 173.84 88.6369C171.355 89.5599 168.892 90.5948 166.383 91.4465C165.299 91.8129 163.462 92.4678 162.409 91.7688C161.72 91.3108 161.16 90.6117 160.538 90.0654C159.645 89.2782 158.769 88.4706 157.978 87.5782C157.37 86.8928 156.011 85.4914 156.419 84.4497C156.707 83.7134 157.787 83.7609 158.416 83.7032C159.849 83.5742 161.289 83.5369 162.729 83.4894C168.339 83.3028 174.163 82.6954 179.678 84.0391C182.348 84.6906 185.01 85.4575 187.533 86.5467C188.8 87.093 190.04 87.6902 191.293 88.2671C192.56 88.8507 193.629 89.5395 194.801 90.2724C195.908 90.968 197.141 91.4024 198.234 92.1319C199.521 92.9904 200.754 93.9269 201.916 94.9449C203.77 96.5668 205.247 98.5959 207.19 100.106C208.259 100.937 209.132 101.945 210.151 102.834C211.129 103.689 212.141 104.503 212.953 105.528C214.613 107.622 216.369 109.624 218.054 111.697C218.611 112.382 219.297 113.672 220.411 113.214C220.064 113.187 219.714 113.16 219.368 113.132C219.657 113.282 219.993 114.194 220.193 114.558C220.601 115.304 220.984 116.061 221.372 116.817C222.187 118.422 222.985 120.034 223.837 121.622C224.829 123.478 226.048 125.168 227.362 126.81C228.826 128.643 230.381 130.465 232.524 131.527C236.26 133.376 240.882 135.446 245.171 134.771C247.005 134.482 247.756 133.129 247.548 131.32C247.283 128.999 245.793 127.173 244.804 125.141C244.258 124.021 243.877 122.82 243.375 121.68C242.858 120.513 242.284 119.366 241.789 118.188C241.293 117.014 240.885 115.81 240.434 114.619C239.941 113.322 239.303 112.108 238.746 110.842C236.742 106.299 236.168 101.27 233.614 96.9367C233.04 95.9662 232.392 95.0093 231.556 94.2391C230.639 93.3976 229.559 92.7562 228.561 92.0199C226.299 90.3505 223.942 88.7319 221.884 86.8181C219.928 84.9994 218.152 83.0008 216.271 81.1074C214.335 79.1563 212.362 77.2459 210.43 75.2949C208.45 73.2997 206.623 71.1246 204.514 69.2584C203.57 68.4236 202.544 67.6398 201.715 66.6863C200.965 65.821 200.343 64.9863 199.409 64.3077C198.815 63.8734 198.248 63.4594 197.749 62.9165C197.419 62.5568 197.124 62.2243 196.713 61.9562C195.687 61.2877 194.461 60.9314 193.351 60.4428C191.025 59.4181 188.725 58.3662 186.29 57.6163C183.655 56.8053 180.928 56.2556 178.259 55.5532C175.654 54.8712 173.049 54.1926 170.404 53.6836C167.622 53.1475 164.841 52.7471 162.1 52.0209C159.394 51.3049 156.782 50.3277 154.147 49.3844C151.566 48.4581 149.182 47.2806 146.798 45.9403C145.657 45.299 144.594 44.6509 143.527 43.8976C142.417 43.1104 141.075 42.6727 139.843 42.123C135.024 39.9751 130.279 37.7186 125.613 35.2551C118.811 31.6617 112.484 27.4304 106.252 22.9378C103.593 21.0207 101.005 19.039 98.1595 17.4069C95.4868 15.8732 92.7632 14.4209 90.0667 12.9279C87.0273 11.2449 83.998 9.52791 81.0638 7.66165C78.6424 6.12114 76.1497 4.48901 74.1596 2.40219C73.5314 1.74391 72.9439 1.02116 72.5941 0.172863C72.4888 -0.0850203 71.3273 -0.0544815 71.419 0.172863L71.4224 0.183042Z" fill="#CCA264"/>
<path d="M387.255 208.42C386.535 208.665 385.961 208.268 385.302 207.969C384.569 207.636 383.832 207.311 383.095 206.985C381.509 206.283 379.916 205.597 378.316 204.919C375.25 203.622 372.163 202.374 369.055 201.172C362.932 198.801 356.843 196.514 351.172 193.158C348.336 191.481 345.657 189.51 342.862 187.763C340.101 186.035 337.333 184.417 334.772 182.395C332.358 180.491 329.61 179.083 327.029 177.42C324.472 175.771 322.197 173.918 320.084 171.726C315.751 167.227 311.075 163.04 306.011 159.372C303.556 157.594 301.009 155.941 298.37 154.448C295.745 152.962 292.923 151.313 289.985 150.57C283.737 148.988 277.505 147.282 271.127 146.274C269.711 146.05 268.271 145.809 266.841 145.714C265.405 145.619 263.839 146.131 262.416 146.366C260.925 146.613 259.424 146.817 257.913 146.858C256.283 146.902 254.646 146.739 253.016 146.674C249.854 146.549 246.648 146.593 243.504 146.226C240.4 145.867 237.309 145.344 234.181 145.229C231.695 145.137 228.785 145.707 226.941 147.536C225.161 149.304 227.413 151.92 228.503 153.434C235.608 163.274 248.547 165.279 259.869 164.339C262.121 164.153 264.399 163.851 266.41 162.751C267.194 162.32 268.587 161.482 268.943 160.603C269.252 159.843 268.6 158.659 268.159 158.075C266.94 156.467 264.895 155.924 263.072 156.796C261.078 157.75 260.022 159.904 259.373 161.903C259.057 162.877 258.745 163.868 258.731 164.899C258.714 166.161 259.19 167.383 259.601 168.56C260.647 171.56 261.696 174.56 262.83 177.529C263.938 180.42 265.248 183.212 266.036 186.208C266.417 187.657 266.716 189.123 267.065 190.579C267.211 191.186 267.656 191.627 267.816 192.201C267.955 192.696 267.874 193.276 268.006 193.796C268.135 194.291 268.397 194.766 268.461 195.275C268.536 195.876 268.363 196.5 268.403 197.107C268.451 197.796 268.824 198.373 268.916 199.055C269.035 199.917 269.015 200.83 269.052 201.698C269.195 204.857 269.242 208.04 268.774 211.176C268.549 212.686 268.21 214.182 267.697 215.621C267.147 217.178 266.583 218.423 264.922 218.983C262.24 219.886 259.034 219.825 256.232 219.757C244.342 219.465 232.453 218.966 220.556 218.885C217.402 218.865 214.247 218.871 211.092 218.912C208.708 218.943 205.02 218.973 203.678 216.496C202.731 214.745 203.145 212.489 204.806 211.389C206.402 210.334 208.514 210.117 210.375 210.025C212.552 209.917 214.729 210.09 216.909 210.029C219.966 209.944 223.008 209.632 226.061 209.442C228.904 209.265 231.658 209.37 234.494 209.54C236.413 209.655 238.752 209.313 240.107 207.82C240.841 207.012 241.075 206.116 241.126 205.054C241.153 204.501 241.147 203.935 241.001 203.395C240.814 202.706 240.349 202.099 240.063 201.447C238.99 199.001 238.759 196.324 238.719 193.684C238.702 192.408 238.569 191.037 238.929 189.826C239.33 188.489 239.048 186.819 239.048 185.435C239.048 182.014 239.123 178.594 239.36 175.181C239.462 173.728 239.748 172.235 239.666 170.78C239.591 169.432 239.255 168.126 238.912 166.827C238.576 165.564 238.369 164.319 238.155 163.036C237.978 161.981 237.377 160.966 236.552 160.288C234.708 158.771 232.171 159.826 230.069 160.105C227.06 160.505 224.078 158.883 221.351 157.787C215.632 155.486 209.886 153.02 203.668 152.511C201.393 152.324 198.981 152.253 196.764 152.874C195.089 153.342 192.458 154.662 192.356 156.667C192.247 158.832 195.015 160.054 196.557 160.871C199.413 162.392 202.34 163.779 205.25 165.194C211.357 168.16 217.079 171.74 223.039 174.977C225.763 176.456 228.524 177.875 231.322 179.212C233.281 180.148 235.761 181.638 237.965 180.471C238.535 180.169 239.649 179.707 239.734 178.971C239.832 178.129 238.698 177.084 238.111 176.606C237.085 175.768 235.754 175.316 234.552 174.804C233.132 174.2 231.699 173.63 230.259 173.073C224.177 170.719 217.989 168.54 212.423 165.079C211.071 164.237 209.828 163.22 208.422 162.466C207.023 161.713 205.529 161.123 204.065 160.512C201.42 159.412 198.492 159.3 195.663 159.28C193.157 159.263 190.661 159.29 188.155 159.331C187.116 159.348 186.331 159.504 185.418 160.037C184.389 160.634 183.448 161.513 182.993 162.629C181.356 166.623 185.811 170.193 188.586 172.212C190.542 173.633 192.607 174.875 194.597 176.246C197.358 178.15 200.52 179.666 203.491 181.207C209.207 184.173 215.058 186.826 221.141 188.947C226.849 190.939 232.674 192.683 238.715 193.283C239.014 193.314 239.235 192.968 239.204 192.7C239.133 192.075 238.545 191.091 237.788 191.644C236.932 192.275 237.958 193.093 238.579 193.256C239.031 193.375 239.275 192.93 239.174 192.537C239.041 192.021 238.882 191.526 238.596 191.074C238.185 190.426 237.506 190.104 236.891 189.663C235.513 188.679 234.195 187.484 232.697 186.683C231.166 185.866 229.505 185.224 227.922 184.505C226.235 183.735 224.571 182.914 222.89 182.123C216.213 178.971 209.36 176.151 202.231 174.193C197.181 172.805 189.663 170.342 186.161 175.958C184.908 177.966 184.721 180.644 186.623 182.303C189.289 184.631 192.342 186.605 195.354 188.448C201.474 192.194 207.95 195.526 214.539 198.366C221.297 201.281 228.225 203.775 234.986 206.673C241.853 209.611 248.472 213.018 254.972 216.686C256.578 217.592 258.188 218.498 259.822 219.35C261.214 220.076 262.691 220.985 264.24 221.314C264.855 221.447 265.598 221.63 266.227 221.532C266.807 221.44 267.242 221.002 267.799 220.86C268.41 220.704 269.059 221.009 269.667 221.097C270.499 221.216 271.395 221.029 272.224 220.928C273.878 220.721 275.528 220.453 277.196 220.361C278.87 220.273 280.558 220.439 282.225 220.585C285.594 220.877 288.96 221.314 292.346 221.033C294.027 220.894 295.68 220.568 297.365 220.439C298.995 220.317 300.632 220.269 302.262 220.12C305.359 219.838 308.28 218.983 311.024 217.504C312.345 216.795 313.547 215.923 314.6 214.854C315.058 214.389 314.328 213.469 313.809 213.995C311.638 216.194 308.545 217.626 305.577 218.376C302.639 219.119 299.576 219.027 296.577 219.299C294.95 219.445 293.347 219.771 291.717 219.872C290.145 219.971 288.569 219.927 287 219.818C283.961 219.608 280.894 219.082 277.841 219.136C276.326 219.163 274.822 219.374 273.321 219.574C272.502 219.682 271.687 219.794 270.866 219.876C270.05 219.957 269.405 219.818 268.607 219.679C268.172 219.601 267.768 219.587 267.347 219.73C266.794 219.916 266.373 220.32 265.775 220.337C264.009 220.392 262.314 219.367 260.803 218.593C254.829 215.529 249.107 212.034 243.059 209.106C230.67 203.107 217.425 199.082 205.244 192.635C199.243 189.459 193.324 186.222 187.978 182.001C186.582 180.898 185.913 179.829 186.43 178.034C186.8 176.741 187.676 175.676 188.776 174.926C191.303 173.206 194.077 173.498 196.91 174.095C203.654 175.52 210.188 177.787 216.522 180.491C219.738 181.865 222.873 183.389 226.034 184.882C227.518 185.584 229.023 186.249 230.517 186.931C232.106 187.657 233.478 188.506 234.881 189.547C235.553 190.046 236.219 190.545 236.908 191.02C237.652 191.532 237.971 191.967 238.192 192.825C238.389 192.584 238.589 192.347 238.786 192.106C238.426 191.923 238.216 192.106 238.165 192.666C238.328 192.472 238.491 192.275 238.654 192.082C232.578 191.478 226.73 189.683 220.991 187.671C214.994 185.567 209.224 182.931 203.593 179.992C200.836 178.553 198.037 177.098 195.409 175.428C194.339 174.746 193.385 173.905 192.264 173.297C191.367 172.812 190.532 172.235 189.697 171.648C186.837 169.636 180.697 164.825 185.482 161.425C186.477 160.715 187.319 160.539 188.494 160.529C189.51 160.519 190.518 160.519 191.534 160.468C194.339 160.329 197.348 160.356 200.139 160.712C206.33 161.499 211.058 165.91 216.461 168.601C221.782 171.251 227.437 173.117 232.932 175.364C234.263 175.907 235.699 176.409 236.942 177.132C237.53 177.474 238.012 177.922 238.413 178.475C238.342 178.374 238.664 178.818 238.664 178.849C238.651 178.519 238.155 178.933 237.992 179.035C235.615 180.511 233.22 178.879 230.999 177.807C225.345 175.075 219.864 172.005 214.478 168.781C209.095 165.557 203.291 163.131 197.738 160.227C196.56 159.609 195.249 159.049 194.251 158.16C193.86 157.814 193.341 157.356 193.412 156.776C193.483 156.179 194.217 155.578 194.648 155.239C196.349 153.905 198.628 153.62 200.727 153.596C206.633 153.535 212.192 155.344 217.615 157.505C220.346 158.595 223.053 159.742 225.824 160.722C226.965 161.126 228.031 161.442 229.254 161.387C230.446 161.336 231.604 161.048 232.779 160.858C233.995 160.661 235.234 160.478 236.199 161.408C237.258 162.432 237.177 163.878 237.462 165.218C237.71 166.375 238.07 167.505 238.328 168.662C238.681 170.226 238.606 171.672 238.471 173.253C238.206 176.365 238.08 179.49 238.036 182.612C238.016 184.071 238.012 185.533 238.019 186.992C238.019 187.647 238.148 188.462 238.026 189.11C237.91 189.714 237.686 190.151 237.679 190.799C237.652 193.212 237.628 195.655 238.026 198.041C238.209 199.147 238.484 200.236 238.892 201.281C239.116 201.854 239.377 202.408 239.656 202.957C240.087 203.816 240.192 204.555 240.046 205.516C239.686 207.922 236.674 208.424 234.687 208.359C233.472 208.319 232.263 208.139 231.04 208.115C229.604 208.088 228.167 208.135 226.737 208.213C223.857 208.373 220.988 208.658 218.108 208.794C215.897 208.895 213.7 208.773 211.489 208.804C208.592 208.841 204.327 209.041 202.724 211.936C201.892 213.439 202.011 215.607 202.826 217.093C203.777 218.831 205.831 219.628 207.679 219.964C208.973 220.201 210.256 220.13 211.564 220.117C213.112 220.096 214.658 220.086 216.206 220.083C219.103 220.076 222.003 220.096 224.9 220.14C230.269 220.218 235.635 220.375 241.004 220.514C244.037 220.592 247.069 220.666 250.102 220.724C252.904 220.778 255.699 221.026 258.5 220.975C259.815 220.951 261.126 220.856 262.433 220.683C263.622 220.527 264.841 220.402 265.941 219.889C268.234 218.817 268.872 215.923 269.395 213.666C270.017 210.992 270.196 208.23 270.193 205.492C270.193 204.114 270.146 202.737 270.078 201.362C270.04 200.609 270.016 199.849 269.959 199.096C269.904 198.397 269.541 197.837 269.446 197.148C269.361 196.544 269.551 195.923 269.504 195.316C269.47 194.875 269.303 194.484 269.164 194.067C268.947 193.419 268.998 192.839 268.889 192.187C268.774 191.502 268.22 190.983 268.054 190.301C267.405 187.617 266.946 184.858 265.856 182.31C264.685 179.575 263.639 176.786 262.596 173.996C262.11 172.693 261.723 171.353 261.238 170.043C260.728 168.669 260.086 167.234 259.835 165.785C259.628 164.587 260.029 163.372 260.412 162.252C260.793 161.143 261.275 160.037 262.032 159.131C263.476 157.397 266.155 156.881 267.537 158.995C267.857 159.484 268.088 159.911 267.66 160.349C267.262 160.753 266.817 161.106 266.342 161.411C265.303 162.083 264.118 162.48 262.915 162.738C260.205 163.318 257.302 163.386 254.537 163.389C248.723 163.396 242.811 162.449 237.605 159.748C235.146 158.476 232.898 156.874 231.016 154.838C230.116 153.864 229.305 152.813 228.588 151.7C228.231 151.147 227.885 150.58 227.586 149.996C227.111 149.07 227.437 148.605 228.215 148.062C230.643 146.369 233.329 146.318 236.175 146.556C239.309 146.817 242.413 147.424 245.555 147.59C248.445 147.743 251.342 147.797 254.232 147.93C257.013 148.055 259.652 148.038 262.409 147.597C263.785 147.377 265.221 146.949 266.614 146.922C268.247 146.891 269.979 147.282 271.589 147.543C274.635 148.038 277.654 148.7 280.653 149.419C283.58 150.122 286.491 150.889 289.408 151.628C292.42 152.392 295.225 153.953 297.922 155.48C303.053 158.384 307.842 161.883 312.284 165.758C314.525 167.712 316.678 169.762 318.757 171.889C320.743 173.922 322.706 175.808 325.053 177.434C327.369 179.035 329.831 180.393 332.212 181.892C333.377 182.625 334.426 183.521 335.509 184.366C336.793 185.37 338.185 186.185 339.571 187.033C344.784 190.226 349.746 193.887 355.217 196.632C360.711 199.388 366.522 201.366 372.217 203.643C374.937 204.729 377.641 205.852 380.327 207.012C381.679 207.596 383.027 208.19 384.372 208.79C385.058 209.099 385.852 209.628 386.586 209.791C387.017 209.886 387.211 209.723 387.608 209.588C388.247 209.37 387.907 208.207 387.268 208.424L387.255 208.42Z" fill="#CCA264"/>
<path d="M307.658 218.966C312.324 220.039 315.021 214.572 316.665 211.159C317.486 209.448 318.203 207.691 319.049 205.991C319.813 204.45 320.808 203.161 322.013 201.939C323.158 200.779 324.394 199.693 325.396 198.404C326.048 197.562 326.537 196.588 326.853 195.574C327.196 194.464 327.349 193.229 327.04 192.092C326.69 190.813 325.702 189.778 324.591 189.096C324.591 189.096 324.435 188.991 324.408 189.032C322.757 191.814 321.259 194.685 319.928 197.63C319.273 199.079 318.658 200.545 318.084 202.028C317.497 203.544 317.12 205.142 316.59 206.683C315.53 209.757 314.298 212.77 313.279 215.862C313.177 216.17 312.99 216.523 313.021 216.852C313.048 217.12 313.136 217.399 313.228 217.653C313.408 218.142 313.68 218.586 314.006 218.99C314.709 219.859 315.605 220.561 316.553 221.145C317.493 221.725 318.488 222.214 319.426 222.807C320.74 223.635 322.054 224.467 323.372 225.295C325.98 226.94 328.585 228.589 331.176 230.262C336.277 233.557 341.327 236.94 346.207 240.554C351.06 244.151 376.992 265.545 381.37 269.712C381.913 270.227 382.46 270.74 382.983 271.276C401.019 289.823 404.697 294.363 383.584 271.724C383.492 271.625 383.394 271.374 383.36 271.34C379.101 267.133 353.298 245.674 348.557 242.023C343.847 238.399 338.956 235.016 333.991 231.749C328.941 228.427 323.827 225.203 318.706 221.993C317.065 220.965 314.736 220.263 314.08 218.247C313.989 217.969 313.893 217.66 313.955 217.365C314.036 216.981 314.202 216.591 314.328 216.221C314.583 215.461 314.851 214.708 315.126 213.955C315.673 212.451 316.244 210.958 316.79 209.459C317.34 207.955 317.867 206.439 318.325 204.905C318.556 204.131 318.777 203.375 319.069 202.621C319.358 201.882 319.657 201.145 319.969 200.412C321.198 197.508 322.584 194.668 324.119 191.916C324.506 191.22 324.903 190.531 325.311 189.849C325.25 189.829 325.189 189.805 325.128 189.785C325.902 190.26 326.197 191.247 326.282 192.106C326.388 193.151 326.177 194.213 325.817 195.19C324.9 197.691 322.842 199.364 321.029 201.213C319.901 202.363 318.954 203.585 318.23 205.027C317.425 206.629 316.743 208.288 315.982 209.91C315.079 211.834 314.111 213.782 312.776 215.448C311.312 217.277 309.282 218.692 306.843 218.132C306.711 218.101 307.05 218.498 307.067 218.515C307.22 218.671 307.441 218.912 307.669 218.963L307.658 218.966Z" fill="#CCA264"/>
<path d="M259.02 164.753C260.491 168.9 263.554 172.052 267.113 174.522C268.899 175.761 270.784 176.853 272.669 177.929C274.734 179.106 276.758 180.379 278.873 181.461C281.356 182.73 283.944 183.775 286.477 184.929C289.004 186.079 291.473 187.372 294.094 188.302C295.422 188.774 296.815 189.028 298.126 189.534C299.406 190.026 300.618 190.674 301.878 191.21C304.31 192.252 307.006 192.73 309.625 193.039C310.222 193.11 310.83 193.134 311.424 193.232C311.951 193.317 312.47 193.453 312.987 193.585C314.09 193.867 315.214 194.162 316.359 194.138C317.476 194.115 318.427 193.667 319.368 193.1C319.84 192.815 320.319 192.52 320.845 192.34C321.365 192.16 321.915 192.089 322.455 191.994C323.029 191.892 323.579 191.743 324.102 191.485C324.36 191.356 324.197 191.074 324.034 190.949C323.813 190.779 323.457 190.711 323.202 190.837C322.193 191.332 321.032 191.281 319.986 191.671C319.001 192.041 318.186 192.74 317.211 193.12C316.233 193.5 315.187 193.365 314.189 193.134C313.116 192.886 312.053 192.55 310.956 192.418C308.47 192.119 305.916 191.889 303.525 191.074C302.259 190.643 301.067 190.019 299.847 189.469C298.621 188.916 297.389 188.519 296.091 188.17C293.459 187.457 291.007 186.239 288.552 185.078C286.1 183.918 283.587 182.89 281.132 181.74C278.921 180.701 276.849 179.449 274.734 178.238C272.89 177.183 271.028 176.151 269.239 175.001C265.758 172.768 262.532 170.036 260.749 166.219C260.518 165.72 260.311 165.211 260.127 164.692C259.978 164.268 258.81 164.149 259.02 164.743V164.753Z" fill="#CCA264"/>
</g>
<defs>
<clipPath id="clip0_31_799">
<rect width="398" height="287" fill="white"/>
</clipPath>
</defs>
</svg>
